<svg aria-hidden="true" style="width:0;height:0;position:absolute;overflow:hidden" xmlns="http://www.w3.org/2000/svg"><defs><symbol id="icon-modal-close" viewBox="0 0 32 32"><path d="m17.253 15.751 7.369-7.317a.875.875 0 0 0-.047-1.198.893.893 0 0 0-1.206-.046L16 14.507 8.631 7.181a.896.896 0 0 0-1.262 0 .885.885 0 0 0 0 1.254l7.378 7.317-7.378 7.317a.873.873 0 0 0-.249.992.883.883 0 0 0 .503.5.896.896 0 0 0 1-.247l7.378-7.317 7.369 7.317a.894.894 0 0 0 1.206-.046.875.875 0 0 0 .047-1.198l-7.369-7.317z"/></symbol><symbol id="icon-arrow-right" viewBox="0 0 32 32"><path d="M10.587 3.272c-.361.362-.585.861-.585 1.413s.223 1.051.585 1.413l9.899 9.901-9.899 9.901a2 2 0 0 0 2.828 2.825l-.001.001 11.315-11.315c.361-.362.585-.861.585-1.413s-.224-1.052-.585-1.413L13.414 3.27c-.362-.361-.861-.585-1.413-.585s-1.052.224-1.413.585z"/></symbol><symbol id="icon-menu-close" viewBox="0 0 32 32"><path fill="#fcfcfc" style="fill:var(--color1,#fcfcfc)" d="M23.884 6.706 16 14.59 8.116 6.706a.996.996 0 0 0-1.672.736c0 .26.099.497.262.674l-.001-.001 7.88 7.884-7.882 7.882a.998.998 0 0 0 1.41 1.412l7.886-7.882 7.884 7.884a.996.996 0 0 0 1.672-.736.992.992 0 0 0-.262-.674l.001.001-7.884-7.884 7.884-7.886a.998.998 0 0 0-1.41-1.412v.002z"/></symbol><symbol id="icon-menu-burger" viewBox="0 0 32 32"><path fill="#fff" style="fill:var(--color2,#fff)" d="M26.733 14H5.267c-.7 0-1.267.425-1.267.95v.1c0 .525.567.95 1.267.95h21.466c.7 0 1.267-.425 1.267-.95v-.1c0-.525-.567-.95-1.267-.95zm0 6H5.267c-.7 0-1.267.425-1.267.95v.1c0 .525.567.95 1.267.95h21.466c.7 0 1.267-.425 1.267-.95v-.1c0-.525-.567-.95-1.267-.95zm0-12H5.267C4.567 8 4 8.425 4 8.95v.1c0 .525.567.95 1.267.95h21.466c.7 0 1.267-.425 1.267-.95v-.1c0-.525-.567-.95-1.267-.95z"/></symbol></defs></svg>