<svg aria-hidden="true" style="position: absolute; width: 0; height: 0; overflow: hidden;" version="1.1" xmlns="http://www.w3.org/2000/svg" xmlns:xlink="http://www.w3.org/1999/xlink">
<defs>
<symbol id="icon-modal-close" viewBox="0 0 32 32">
<path d="M17.253 15.751l7.369-7.317c0.146-0.169 0.222-0.386 0.213-0.608s-0.101-0.433-0.26-0.59c-0.158-0.157-0.37-0.249-0.594-0.258s-0.442 0.067-0.612 0.212l-7.369 7.317-7.369-7.326c-0.167-0.166-0.394-0.26-0.631-0.26s-0.464 0.093-0.631 0.26c-0.167 0.166-0.261 0.392-0.261 0.627s0.094 0.46 0.261 0.627l7.378 7.317-7.378 7.317c-0.093 0.079-0.169 0.176-0.222 0.286s-0.083 0.229-0.088 0.35 0.016 0.243 0.061 0.356c0.045 0.113 0.112 0.216 0.199 0.302s0.19 0.153 0.304 0.198c0.114 0.044 0.236 0.065 0.359 0.060s0.243-0.034 0.353-0.087 0.208-0.128 0.288-0.22l7.378-7.317 7.369 7.317c0.17 0.145 0.389 0.22 0.612 0.212s0.436-0.101 0.594-0.258c0.158-0.157 0.251-0.368 0.26-0.59s-0.067-0.439-0.213-0.608l-7.369-7.317z"></path>
</symbol>
<symbol id="icon-arrow-right" viewBox="0 0 32 32">
<path d="M10.587 3.272c-0.361 0.362-0.585 0.861-0.585 1.413s0.223 1.051 0.585 1.413l9.899 9.901-9.899 9.901c-0.333 0.356-0.537 0.836-0.537 1.363 0 1.105 0.895 2 2 2 0.527 0 1.007-0.204 1.365-0.538l-0.001 0.001 11.315-11.315c0.361-0.362 0.585-0.861 0.585-1.413s-0.224-1.052-0.585-1.413l-11.315-11.315c-0.362-0.361-0.861-0.585-1.413-0.585s-1.052 0.224-1.413 0.585l0-0z"></path>
</symbol>
<symbol id="icon-menu-close" viewBox="0 0 32 32">
<path fill="#fcfcfc" style="fill: var(--color1, #fcfcfc)" d="M23.884 6.706l-7.884 7.884-7.884-7.884c-0.177-0.162-0.414-0.262-0.674-0.262-0.551 0-0.998 0.447-0.998 0.998 0 0.26 0.099 0.497 0.262 0.674l-0.001-0.001 7.88 7.884-7.882 7.882c-0.181 0.181-0.293 0.43-0.293 0.706 0 0.551 0.447 0.998 0.998 0.998 0.275 0 0.524-0.111 0.705-0.292v0l7.886-7.882 7.884 7.884c0.177 0.162 0.414 0.262 0.674 0.262 0.551 0 0.998-0.447 0.998-0.998 0-0.26-0.099-0.497-0.262-0.674l0.001 0.001-7.884-7.884 7.884-7.886c0.181-0.181 0.293-0.43 0.293-0.706 0-0.551-0.447-0.998-0.998-0.998-0.275 0-0.524 0.111-0.705 0.292v0 0.002z"></path>
</symbol>
<symbol id="icon-menu-burger" viewBox="0 0 32 32">
<path fill="#fff" style="fill: var(--color2, #fff)" d="M26.733 14h-21.466c-0.7 0-1.267 0.425-1.267 0.95v0.1c0 0.525 0.567 0.95 1.267 0.95h21.466c0.7 0 1.267-0.425 1.267-0.95v-0.1c0-0.525-0.567-0.95-1.267-0.95zM26.733 20h-21.466c-0.7 0-1.267 0.425-1.267 0.95v0.1c0 0.525 0.567 0.95 1.267 0.95h21.466c0.7 0 1.267-0.425 1.267-0.95v-0.1c0-0.525-0.567-0.95-1.267-0.95zM26.733 8h-21.466c-0.7 0-1.267 0.425-1.267 0.95v0.1c0 0.525 0.567 0.95 1.267 0.95h21.466c0.7 0 1.267-0.425 1.267-0.95v-0.1c0-0.525-0.567-0.95-1.267-0.95z"></path>
</symbol>
</defs>
</svg>
