<svg xmlns="http://www.w3.org/2000/svg" width="20" height="20" fill="none"><g clip-path="url(#a)"><path fill="#131313" d="m10.7831 9.99997 4.6056-4.60556c.091-.10628.1385-.24299.1331-.38281-.0054-.13982-.0633-.27245-.1623-.37139-.0989-.09894-.2315-.1569-.3714-.1623-.1398-.00541-.2765.04215-.3828.13317L9.99977 9.21663 5.39421 4.60552c-.10461-.10461-.2465-.16338-.39444-.16338-.14795 0-.28983.05877-.39445.16338-.10461.10462-.16338.2465-.16338.39445 0 .14794.05877.28983.16338.39444l4.61111 4.60556-4.61111 4.60553c-.05815.0498-.10539.1111-.13873.18-.03335.069-.05209.144-.05504.2205-.00296.0766.00993.1529.03786.2241.02793.0713.0703.1361.12444.1902.05414.0542.11889.0965.19018.1245.07129.0279.14759.0408.2241.0378.07651-.0029.15159-.0217.22051-.055.06893-.0334.13021-.0806.18002-.1387l4.61111-4.6056 4.60553 4.6056c.1063.091.243.1385.3828.1331.1399-.0054.2725-.0633.3714-.1623.099-.0989.1569-.2315.1623-.3714.0054-.1398-.0421-.2765-.1331-.3828l-4.6056-4.60553Z"/></g><defs><clipPath id="a"><path fill="#fff" d="M0 0h20v20H0z"/></clipPath></defs></svg>