<svg xmlns="http://www.w3.org/2000/svg" width="14" height="14" fill="none"><path fill="#131313" d="m7.93982 6.99996 5.52668-5.52667c.1092-.12753.1663-.29158.1598-.45936-.0065-.167789-.076-.326948-.1948-.445678-.1187-.118729-.2779-.188285-.4456-.194765-.1678-.006481-.3319.05059-.4594.159807L6.99982 6.05996 1.47315.526628C1.34762.401092 1.17735.330566.999819.330566c-.177534 0-.347797.070526-.473333.196062C.40095.652163.330425.822426.330425.999961c0 .177539.070525.347799.196061.473329L6.05982 6.99996.526486 12.5266c-.069788.0598-.126468.1333-.166484.216-.040015.0828-.062502.1728-.066048.2647-.003547.0918.011924.1833.04544.2689.033517.0855.084355.1632.149325.2282.06497.065.142668.1158.228218.1493.08555.0335.177105.049.268918.0455.091815-.0036.181905-.0261.264615-.0661.08271-.04.15625-.0967.21602-.1665l5.53333-5.52664 5.52668 5.52664c.1275.1092.2916.1663.4594.1598.1677-.0064.3269-.076.4456-.1947.1188-.1188.1883-.2779.1948-.4457.0065-.1678-.0506-.3318-.1598-.4594L7.93982 6.99996Z"/></svg>