<svg xmlns="http://www.w3.org/2000/svg" width="24" height="24" fill="none"><g clip-path="url(#a)"><path fill="#131313" d="m12.9398 12 5.5267-5.52671c.1092-.12753.1663-.29158.1598-.45936-.0065-.16779-.076-.32695-.1948-.44568-.1187-.11873-.2779-.18828-.4456-.19476-.1678-.00648-.3319.05059-.4594.1598L11.9998 11.06 6.47315 5.52663c-.12553-.12554-.2958-.19606-.47333-.19606-.17754 0-.3478.07052-.47333.19606-.12554.12553-.19607.2958-.19607.47333 0 .17754.07053.3478.19607.47333L11.0598 12l-5.53331 5.5266c-.06979.0598-.12647.1333-.16649.216-.04001.0828-.0625.1728-.06605.2647-.00354.0918.01193.1833.04544.2689.03352.0855.08436.1632.14933.2282.06497.065.14267.1158.22822.1493.08555.0335.1771.049.26891.0455.09182-.0036.18191-.0261.26462-.0661.08271-.04.15625-.0967.21602-.1665L11.9998 12.94l5.5267 5.5266c.1275.1092.2916.1663.4594.1598.1677-.0064.3269-.076.4456-.1947.1188-.1188.1883-.2779.1948-.4457.0065-.1678-.0506-.3318-.1598-.4594L12.9398 12Z"/></g><defs><clipPath id="a"><path fill="#fff" d="M0 0h24v24H0z"/></clipPath></defs></svg>